{
  "accessors": [
    {
      "bufferView": 2,
      "componentType": 5126,
      "count": 38637,
      "max": [
        0.0924990326166153,
        0.2977583408355713,
        0.12020306289196014
      ],
      "min": [
        -0.12402451038360596,
        -0.2697197198867798,
        -0.11350104212760925
      ],
      "type": "VEC3"
    },
    {
      "bufferView": 2,
      "byteOffset": 463644,
      "componentType": 5126,
      "count": 38637,
      "max": [
        0.9999825954437256,
        0.9999802112579346,
        0.9999653697013855
      ],
      "min": [
        -0.9999978542327881,
        -0.9999876618385315,
        -0.9999938607215881
      ],
      "type": "VEC3"
    },
    {
      "bufferView": 1,
      "componentType": 5126,
      "count": 38637,
      "max": [
        0.9966140389442444,
        0.9964617490768433
      ],
      "min": [
        0.0033859943505376577,
        0.0034763216972351074
      ],
      "type": "VEC2"
    },
    {
      "bufferView": 1,
      "byteOffset": 309096,
      "componentType": 5126,
      "count": 38637,
      "max": [
        0.9966140389442444,
        0.9964617490768433
      ],
      "min": [
        0.0033859943505376577,
        0.0034763216972351074
      ],
      "type": "VEC2"
    },
    {
      "bufferView": 1,
      "byteOffset": 618192,
      "componentType": 5126,
      "count": 38637,
      "max": [
        0.9966140389442444,
        0.9964617490768433
      ],
      "min": [
        0.0033859943505376577,
        0.0034763216972351074
      ],
      "type": "VEC2"
    },
    {
      "bufferView": 0,
      "componentType": 5125,
      "count": 149706,
      "type": "SCALAR"
    }
  ],
  "asset": {
    "extras": {
      "author": "saoudiabdo57 (https://sketchfab.com/saoudiabdo57)",
      "license": "SKETCHFAB Standard (https://sketchfab.com/licenses)",
      "source": "https://sketchfab.com/3d-models/roman-statue-of-a-princess-398f7f8b98fd494cbc2d16bab7aa48c4",
      "title": "Roman statue of a princess"
    },
    "generator": "Sketchfab-15.87.0",
    "version": "2.0"
  },
  "bufferViews": [
    {
      "buffer": 0,
      "byteLength": 598824,
      "name": "floatBufferViews",
      "target": 34963
    },
    {
      "buffer": 0,
      "byteLength": 927288,
      "byteOffset": 598824,
      "byteStride": 8,
      "name": "floatBufferViews",
      "target": 34962
    },
    {
      "buffer": 0,
      "byteLength": 927288,
      "byteOffset": 1526112,
      "byteStride": 12,
      "name": "floatBufferViews",
      "target": 34962
    }
  ],
  "buffers": [
    {
      "byteLength": 2453400,
      "uri": "scene.bin"
    }
  ],
  "images": [
    {
      "uri": "textures/Material_0_baseColor.jpeg"
    },
    {
      "uri": "textures/Material_0_metallicRoughness.png"
    }
  ],
  "materials": [
    {
      "doubleSided": true,
      "name": "Material_0",
      "pbrMetallicRoughness": {
        "baseColorTexture": {
          "index": 0
        },
        "metallicRoughnessTexture": {
          "index": 1
        }
      }
    }
  ],
  "meshes": [
    {
      "name": "Object_0",
      "primitives": [
        {
          "attributes": {
            "NORMAL": 1,
            "POSITION": 0,
            "TEXCOORD_0": 2,
            "TEXCOORD_1": 3,
            "TEXCOORD_2": 4
          },
          "indices": 5,
          "material": 0,
          "mode": 4
        }
      ]
    }
  ],
  "nodes": [
    {
      "children": [
        1
      ],
      "matrix": [
        1.0,
        0.0,
        0.0,
        0.0,
        0.0,
        2.220446049250313e-16,
        -1.0,
        0.0,
        0.0,
        1.0,
        2.220446049250313e-16,
        0.0,
        0.0,
        0.0,
        0.0,
        1.0
      ],
      "name": "Sketchfab_model"
    },
    {
      "children": [
        2
      ],
      "name": "root"
    },
    {
      "children": [
        3
      ],
      "matrix": [
        1.0,
        0.0,
        0.0,
        0.0,
        0.0,
        2.220446049250313e-16,
        1.0,
        0.0,
        0.0,
        -1.0,
        2.220446049250313e-16,
        0.0,
        0.0,
        0.0,
        0.0,
        1.0
      ],
      "name": "GLTF_SceneRootNode"
    },
    {
      "children": [
        4
      ],
      "matrix": [
        1.7621827125549316,
        0.0,
        0.0,
        0.0,
        0.0,
        1.7621827125549316,
        0.0,
        0.0,
        0.0,
        0.0,
        1.7621827125549316,
        0.0,
        0.0,
        0.0,
        0.0,
        1.0
      ],
      "name": "high_poly_0"
    },
    {
      "mesh": 0,
      "name": "Object_4"
    }
  ],
  "samplers": [
    {
      "magFilter": 9729,
      "minFilter": 9987,
      "wrapS": 10497,
      "wrapT": 10497
    }
  ],
  "scene": 0,
  "scenes": [
    {
      "name": "Sketchfab_Scene",
      "nodes": [
        0
      ]
    }
  ],
  "textures": [
    {
      "sampler": 0,
      "source": 0
    },
    {
      "sampler": 0,
      "source": 1
    }
  ]
}
